M48
METRIC,LZ,000.000
;FILE_FORMAT=3:3
;TYPE=PLATED
;Layer: PTH_Through
;EasyEDA v6.5.22, 2023-04-03 21:38:45
;dfb6d0e6f91d4013be9fe30095f5eb9b,0997c0c323a540828c61b468e30a80a1,10
;Gerber Generator version 0.2
;Holesize 1 = 0.600 mm
T01C0.600
;Holesize 2 = 0.712 mm
T02C0.712
;Holesize 3 = 0.813 mm
T03C0.813
;Holesize 4 = 0.889 mm
T04C0.889
;Holesize 5 = 0.900 mm
T05C0.900
;Holesize 6 = 0.901 mm
T06C0.901
;Holesize 7 = 0.915 mm
T07C0.915
;Holesize 8 = 1.000 mm
T08C1.000
;Holesize 9 = 1.101 mm
T09C1.101
;Holesize 10 = 1.170 mm
T10C1.170
;Holesize 11 = 1.199 mm
T11C1.199
;Holesize 12 = 1.200 mm
T12C1.200
;Holesize 13 = 1.600 mm
T13C1.600
;Holesize 14 = 2.110 mm
T14C2.110
%
G05
G90
T01
X031820Y088481G85X031820Y087282
X009836Y088486G85X009836Y087287
T02
X123444Y087884
X120904Y087884
X088646Y120269
X088646Y122809
X093472Y117602
X096012Y117602
X068707Y122682
X068707Y120142
X104394Y124587
X104394Y119507
X036830Y074041
X036830Y076581
X053975Y074041
X053975Y076581
X163195Y078994
X163195Y076454
X071501Y062992
X071501Y060452
X126492Y065024
X126492Y062484
X126619Y078740
X126619Y076200
X148082Y123444
X150622Y123444
X087757Y098679
X087757Y096139
X128397Y114427
X130937Y114427
X087757Y076835
X087757Y074295
T03
X011684Y075311
X014224Y075311
X121412Y121793
X123952Y121793
X076572Y096139
X076572Y093599
X076572Y085979
X076572Y083439
X076572Y091059
X076572Y088519
X076572Y080899
X084972Y080899
X084972Y083439
X084972Y085979
X084972Y088519
X084972Y091059
X084972Y093599
X084972Y096139
T04
X089662Y085979
X089662Y088519
X089662Y091059
X034036Y060325
X036576Y060325
X039116Y060325
X159512Y117729
X156972Y117729
X154432Y117729
X151892Y117729
X149352Y117729
X146812Y117729
X144272Y117729
X141732Y117729
X139192Y117729
X133858Y090170
X136398Y090170
X138938Y090170
X141478Y090170
X144018Y090170
X146558Y090170
X149098Y090170
X151638Y090170
X154178Y090170
X070231Y076835
X054229Y088392
X069088Y110236
X159385Y123571
X156845Y123571
X154305Y123571
X053848Y068961
X087757Y069850
X057785Y056388
X057785Y064135
X057404Y104775
X034036Y054229
X046228Y060198
X095631Y088646
X127762Y123698
X130302Y123698
X132842Y123698
X135382Y123698
T05
X071882Y101854
X061722Y101854
X073279Y077343
X073279Y087503
X149225Y073025
X149225Y062865
X153416Y073025
X153416Y062865
X157607Y073025
X157607Y062865
X161798Y073025
X161798Y062865
X145034Y062738
X145034Y072898
X140970Y062738
X140970Y072898
X136779Y062611
X136779Y072771
X132461Y062611
X132461Y072771
X118491Y096901
X108331Y096901
X018542Y069596
X018542Y079756
X116586Y125349
X116586Y115189
X105283Y096012
X105283Y106172
X097155Y114808
X107315Y114808
X057404Y091694
X057404Y101854
X097155Y110617
X107315Y110617
X057404Y074041
X067564Y074041
T06
X123698Y095123
X126238Y110363
X131319Y110363
X136399Y110363
X141479Y110363
X146559Y110363
X151639Y110363
X156719Y110363
X159258Y095123
X154177Y095123
X149097Y095123
X144017Y095123
X138937Y095123
X133857Y095123
X128778Y095123
X126238Y095123
X131318Y095123
X136398Y095123
X141478Y095123
X146558Y095123
X151638Y095123
X156718Y095123
X159258Y110363
X154178Y110363
X149098Y110363
X144018Y110363
X138938Y110363
X133858Y110363
X128778Y110363
X123698Y110363
T07
X093853Y110617
X088773Y110617
X041656Y076581
X041656Y068961
X049276Y068961
X049276Y076581
T08
X123317Y076200
X120777Y076200
X118237Y076200
X115697Y076200
X113157Y076200
X110617Y076200
X108077Y076200
X105537Y076200
X102997Y076200
X100457Y076200
X100457Y083820
X102997Y083820
X105537Y083820
X108077Y083820
X115697Y083820
X118237Y083820
X110617Y083820
X113157Y083820
X120777Y083820
X123317Y083820
X065405Y123444
X055245Y123444
X055245Y118999
X065405Y118999
X065405Y114554
X055245Y114554
X055245Y110236
X065405Y110236
X057404Y078232
X057404Y088392
X061087Y069088
X061087Y066548
X061087Y053848
X061087Y051308
X061087Y064008
X061087Y061468
X061087Y056388
X061087Y058928
X068707Y051308
X068707Y053848
X068707Y056388
X068707Y058928
X068707Y061468
X068707Y064008
X068707Y066548
X068707Y069088
X077089Y074295
X077089Y071755
X077089Y069215
X077089Y066675
X077089Y064135
X077089Y061595
X077089Y059055
X084709Y074295
X084709Y071755
X084709Y069215
X084709Y066675
X084709Y064135
X084709Y061595
X084709Y059055
X160401Y084361
X157861Y084361
X145161Y084361
X142621Y084361
X155321Y084361
X152781Y084361
X147701Y084361
X150241Y084361
X142621Y076421
X145161Y076421
X147701Y076421
X150241Y076421
X152781Y076421
X155321Y076421
X157861Y076421
X160401Y076421
X123317Y062484
X120777Y062484
X118237Y062484
X115697Y062484
X113157Y062484
X110617Y062484
X108077Y062484
X105537Y062484
X102997Y062484
X100457Y062484
X100457Y070104
X102997Y070104
X105537Y070104
X108077Y070104
X115697Y070104
X118237Y070104
X110617Y070104
X113157Y070104
X120777Y070104
X123317Y070104
T09
X050673Y051435
X053213Y051435
T10
X024511Y054508
T11
X096688Y100877
X101686Y100879
X099187Y105877
T12
X027338Y120363
X027338Y100363
X047338Y120363
X047338Y115363
X047338Y105363
X047338Y100363
X078613Y113598
X078613Y121098
X109780Y100747
X116280Y100747
X116280Y105247
X109780Y105247
X096012Y122804
X093472Y122814
X098552Y122804
T13
X016383Y116713
X016383Y123063
T14
X021211Y057783
X027811Y057783
X021211Y051183
X027811Y051183
M30
