G04 Layer: BottomSolderMaskLayer*
G04 EasyEDA v6.5.22, 2023-04-03 21:38:45*
G04 dfb6d0e6f91d4013be9fe30095f5eb9b,0997c0c323a540828c61b468e30a80a1,10*
G04 Gerber Generator version 0.2*
G04 Scale: 100 percent, Rotated: No, Reflected: No *
G04 Dimensions in millimeters *
G04 leading zeros omitted , absolute positions ,4 integer and 5 decimal *
%FSLAX45Y45*%
%MOMM*%

%AMMACRO1*1,1,$1,$2,$3*1,1,$1,$4,$5*1,1,$1,0-$2,0-$3*1,1,$1,0-$4,0-$5*20,1,$1,$2,$3,$4,$5,0*20,1,$1,$4,$5,0-$2,0-$3,0*20,1,$1,0-$2,0-$3,0-$4,0-$5,0*20,1,$1,0-$4,0-$5,$2,$3,0*4,1,4,$2,$3,$4,$5,0-$2,0-$3,0-$4,0-$5,$2,$3,0*%
%ADD10C,1.9812*%
%ADD11C,1.2954*%
%ADD12C,2.1000*%
%ADD13C,3.3000*%
%ADD14MACRO1,0.1016X-0.85X0.7874X0.85X0.7874*%
%ADD15C,1.8016*%
%ADD16C,2.6016*%
%ADD17MACRO1,0.1016X1.25X1.25X1.25X-1.25*%
%ADD18C,1.6764*%
%ADD19MACRO1,0.1016X0.7874X0.7874X0.7874X-0.7874*%
%ADD20MACRO1,0.1016X0.7874X-0.7874X-0.7874X-0.7874*%
%ADD21MACRO1,0.1016X-0.7874X0.7874X0.7874X0.7874*%
%ADD22C,3.1016*%
%ADD23C,1.9016*%
%ADD24MACRO1,0.1016X0.8001X0.8001X0.8001X-0.8001*%
%ADD25C,1.7018*%
%ADD26MACRO1,0.1016X0.8X-0.8X-0.8X-0.8*%
%ADD27C,1.7016*%
%ADD28C,2.3016*%
%ADD29C,1.8796*%
%ADD30C,1.7272*%
%ADD31C,2.7032*%
%ADD32O,1.1015979999999999X2.501646*%
%ADD33MACRO1,0.1016X-1.0998X1.0504X1.0998X1.0504*%
%ADD34C,2.1016*%
%ADD35MACRO1,0.1016X-0.85X0.85X0.85X0.85*%
%ADD36MACRO1,0.1016X1X0.75X1X-0.75*%
%ADD37O,2.1015960000000002X1.6015970000000002*%
%ADD38MACRO1,0.1016X0.85X0.85X0.85X-0.85*%
%ADD39O,1.9015964X2.7015948*%
%ADD40MACRO1,0.1016X0.9X-1.3X-0.9X-1.3*%
%ADD41C,1.6256*%
%ADD42C,0.0155*%

%LPD*%
D10*
G01*
X7188200Y10185400D03*
G01*
X6172200Y10185400D03*
G01*
X7327900Y7734300D03*
G01*
X7327900Y8750300D03*
D11*
G01*
X12344400Y8788400D03*
G01*
X12090400Y8788400D03*
D10*
G01*
X14922500Y7302500D03*
G01*
X14922500Y6286500D03*
G01*
X15341600Y7302500D03*
G01*
X15341600Y6286500D03*
G01*
X15760700Y7302500D03*
G01*
X15760700Y6286500D03*
G01*
X16179800Y7302500D03*
G01*
X16179800Y6286500D03*
G01*
X14503400Y6273800D03*
G01*
X14503400Y7289800D03*
G01*
X14097000Y6273800D03*
G01*
X14097000Y7289800D03*
G01*
X13677900Y6261100D03*
G01*
X13677900Y7277100D03*
G01*
X13246100Y6261100D03*
G01*
X13246100Y7277100D03*
G01*
X11849100Y9690100D03*
G01*
X10833100Y9690100D03*
D12*
G01*
X2451094Y5450845D03*
D13*
G01*
X2121098Y5778301D03*
G01*
X2781091Y5778301D03*
G01*
X2121098Y5118308D03*
G01*
X2781091Y5118308D03*
D14*
G01*
X5067301Y5143500D03*
D15*
G01*
X5321300Y5143500D03*
D16*
G01*
X1638300Y11671300D03*
D17*
G01*
X1638300Y12306300D03*
D10*
G01*
X1168400Y7531100D03*
G01*
X1422400Y7531100D03*
G01*
X12141200Y12179300D03*
G01*
X12395200Y12179300D03*
D18*
G01*
X8966200Y8597900D03*
G01*
X8966200Y8851900D03*
D19*
G01*
X8966200Y9105900D03*
D18*
G01*
X3403600Y6032500D03*
G01*
X3657600Y6032500D03*
D20*
G01*
X3911600Y6032500D03*
G01*
X15951200Y11772900D03*
D18*
G01*
X15697200Y11772900D03*
G01*
X15443200Y11772900D03*
G01*
X15189200Y11772900D03*
G01*
X14935200Y11772900D03*
G01*
X14681200Y11772900D03*
G01*
X14427200Y11772900D03*
G01*
X14173200Y11772900D03*
G01*
X13919200Y11772900D03*
D21*
G01*
X13385800Y9017000D03*
D18*
G01*
X13639800Y9017000D03*
G01*
X13893800Y9017000D03*
G01*
X14147800Y9017000D03*
G01*
X14401800Y9017000D03*
G01*
X14655800Y9017000D03*
G01*
X14909800Y9017000D03*
G01*
X15163800Y9017000D03*
G01*
X15417800Y9017000D03*
D22*
G01*
X2733802Y12036297D03*
G01*
X2733802Y10036302D03*
G01*
X4733797Y12036297D03*
G01*
X4733797Y11536299D03*
G01*
X4733797Y10536301D03*
G01*
X4733797Y10036302D03*
D23*
G01*
X12331700Y7620000D03*
G01*
X12077700Y7620000D03*
G01*
X11823700Y7620000D03*
G01*
X11569700Y7620000D03*
G01*
X11315700Y7620000D03*
G01*
X11061700Y7620000D03*
G01*
X10807700Y7620000D03*
G01*
X10553700Y7620000D03*
G01*
X10299700Y7620000D03*
G01*
X10045700Y7620000D03*
G01*
X10045700Y8382000D03*
G01*
X10299700Y8382000D03*
G01*
X10553700Y8382000D03*
G01*
X10807700Y8382000D03*
G01*
X11569700Y8382000D03*
G01*
X11823700Y8382000D03*
G01*
X11061700Y8382000D03*
G01*
X11315700Y8382000D03*
G01*
X12077700Y8382000D03*
G01*
X12331700Y8382000D03*
D24*
G01*
X7657200Y9613900D03*
D25*
G01*
X7657211Y9359900D03*
G01*
X7657211Y8597900D03*
G01*
X7657211Y8343900D03*
G01*
X7657211Y9105900D03*
G01*
X7657211Y8851900D03*
G01*
X7657211Y8089900D03*
G01*
X8497188Y8089900D03*
G01*
X8497188Y8343900D03*
G01*
X8497188Y8597900D03*
G01*
X8497188Y8851900D03*
G01*
X8497188Y9105900D03*
G01*
X8497188Y9359900D03*
G01*
X8497188Y9613900D03*
D26*
G01*
X12369800Y9512300D03*
D27*
G01*
X12623800Y11036300D03*
G01*
X13131800Y11036300D03*
G01*
X13639800Y11036300D03*
G01*
X14147800Y11036300D03*
G01*
X14655800Y11036300D03*
G01*
X15163800Y11036300D03*
G01*
X15671800Y11036300D03*
G01*
X15925800Y9512300D03*
G01*
X15417800Y9512300D03*
G01*
X14909800Y9512300D03*
G01*
X14401800Y9512300D03*
G01*
X13893800Y9512300D03*
G01*
X13385800Y9512300D03*
G01*
X12877800Y9512300D03*
G01*
X12623800Y9512300D03*
G01*
X13131800Y9512300D03*
G01*
X13639800Y9512300D03*
G01*
X14147800Y9512300D03*
G01*
X14655800Y9512300D03*
G01*
X15163800Y9512300D03*
G01*
X15671800Y9512300D03*
G01*
X15925800Y11036300D03*
G01*
X15417800Y11036300D03*
G01*
X14909800Y11036300D03*
G01*
X14401800Y11036300D03*
G01*
X13893800Y11036300D03*
G01*
X13385800Y11036300D03*
G01*
X12877800Y11036300D03*
D26*
G01*
X12369800Y11036300D03*
D10*
G01*
X1854200Y6959600D03*
G01*
X1854200Y7975600D03*
G01*
X11658600Y12534900D03*
G01*
X11658600Y11518900D03*
D19*
G01*
X7023100Y7683500D03*
G01*
X5422900Y8839200D03*
G01*
X6908800Y11023600D03*
D18*
G01*
X15938500Y12357100D03*
G01*
X15684500Y12357100D03*
D21*
G01*
X15430500Y12357100D03*
D19*
G01*
X5384800Y6896100D03*
G01*
X8775700Y6985000D03*
G01*
X5778500Y5638800D03*
G01*
X5778500Y6413500D03*
G01*
X5740400Y10477500D03*
G01*
X3403600Y5422900D03*
G01*
X4622800Y6019800D03*
G01*
X9563100Y8864600D03*
D28*
G01*
X7861300Y11359794D03*
G01*
X7861300Y12109780D03*
D11*
G01*
X8864600Y12026900D03*
G01*
X8864600Y12280900D03*
G01*
X9347200Y11760200D03*
G01*
X9601200Y11760200D03*
G01*
X6870700Y12268200D03*
G01*
X6870700Y12014200D03*
D29*
G01*
X10439400Y12458700D03*
G01*
X10439400Y11950700D03*
D30*
G01*
X9385300Y11061700D03*
G01*
X8877300Y11061700D03*
D11*
G01*
X3683000Y7404100D03*
G01*
X3683000Y7658100D03*
G01*
X5397500Y7404100D03*
G01*
X5397500Y7658100D03*
G01*
X16319500Y7899400D03*
G01*
X16319500Y7645400D03*
G01*
X7150100Y6299200D03*
G01*
X7150100Y6045200D03*
G01*
X12649200Y6502400D03*
G01*
X12649200Y6248400D03*
G01*
X12661900Y7874000D03*
G01*
X12661900Y7620000D03*
G01*
X14808200Y12344400D03*
G01*
X15062200Y12344400D03*
G01*
X8775700Y9867900D03*
G01*
X8775700Y9613900D03*
G01*
X12839700Y11442700D03*
G01*
X13093700Y11442700D03*
G01*
X8775700Y7683500D03*
G01*
X8775700Y7429500D03*
D31*
G01*
X6540525Y12344400D03*
G01*
X5524525Y12344400D03*
G01*
X5524500Y11899900D03*
G01*
X6540500Y11899900D03*
G01*
X6540525Y11455400D03*
G01*
X5524525Y11455400D03*
G01*
X5524500Y11023600D03*
G01*
X6540500Y11023600D03*
G01*
X5740400Y7823174D03*
G01*
X5740400Y8839174D03*
D32*
G01*
X3181984Y8788145D03*
G01*
X983614Y8788654D03*
D21*
G01*
X12776200Y12369800D03*
D18*
G01*
X13030200Y12369800D03*
G01*
X13284200Y12369800D03*
G01*
X13538200Y12369800D03*
D10*
G01*
X10528300Y9601200D03*
G01*
X10528300Y10617200D03*
G01*
X9715500Y11480800D03*
G01*
X10731500Y11480800D03*
G01*
X5740400Y9169400D03*
G01*
X5740400Y10185400D03*
G01*
X9715500Y11061700D03*
G01*
X10731500Y11061700D03*
G01*
X5740400Y7404100D03*
G01*
X6756400Y7404100D03*
D33*
G01*
X9668763Y10087749D03*
D28*
G01*
X10168636Y10087863D03*
G01*
X9918700Y10587736D03*
D34*
G01*
X10978006Y10074706D03*
G01*
X11627993Y10074706D03*
G01*
X11627993Y10524693D03*
G01*
X10978006Y10524693D03*
D35*
G01*
X6108691Y6908798D03*
D15*
G01*
X6108700Y6654800D03*
G01*
X6108700Y5384800D03*
G01*
X6108700Y5130800D03*
G01*
X6108700Y6400800D03*
G01*
X6108700Y6146800D03*
G01*
X6108700Y5638800D03*
G01*
X6108700Y5892800D03*
G01*
X6870700Y5130800D03*
G01*
X6870700Y5384800D03*
G01*
X6870700Y5638800D03*
G01*
X6870700Y5892800D03*
G01*
X6870700Y6146800D03*
G01*
X6870700Y6400800D03*
G01*
X6870700Y6654800D03*
G01*
X6870700Y6908800D03*
D36*
G01*
X7708900Y7429500D03*
D37*
G01*
X7708900Y7175500D03*
G01*
X7708900Y6921500D03*
G01*
X7708900Y6667500D03*
G01*
X7708900Y6413500D03*
G01*
X7708900Y6159500D03*
G01*
X7708900Y5905500D03*
G01*
X8470900Y7429500D03*
G01*
X8470900Y7175500D03*
G01*
X8470900Y6921500D03*
G01*
X8470900Y6667500D03*
G01*
X8470900Y6413500D03*
G01*
X8470900Y6159500D03*
G01*
X8470900Y5905500D03*
D38*
G01*
X16040098Y8436105D03*
D15*
G01*
X15786100Y8436102D03*
G01*
X14516100Y8436102D03*
G01*
X14262100Y8436102D03*
G01*
X15532100Y8436102D03*
G01*
X15278100Y8436102D03*
G01*
X14770100Y8436102D03*
G01*
X15024100Y8436102D03*
G01*
X14262100Y7642097D03*
G01*
X14516100Y7642097D03*
G01*
X14770100Y7642097D03*
G01*
X15024100Y7642097D03*
G01*
X15278100Y7642097D03*
G01*
X15532100Y7642097D03*
G01*
X15786100Y7642097D03*
G01*
X16040100Y7642097D03*
D23*
G01*
X12331700Y6248400D03*
G01*
X12077700Y6248400D03*
G01*
X11823700Y6248400D03*
G01*
X11569700Y6248400D03*
G01*
X11315700Y6248400D03*
G01*
X11061700Y6248400D03*
G01*
X10807700Y6248400D03*
G01*
X10553700Y6248400D03*
G01*
X10299700Y6248400D03*
G01*
X10045700Y6248400D03*
G01*
X10045700Y7010400D03*
G01*
X10299700Y7010400D03*
G01*
X10553700Y7010400D03*
G01*
X10807700Y7010400D03*
G01*
X11569700Y7010400D03*
G01*
X11823700Y7010400D03*
G01*
X11061700Y7010400D03*
G01*
X11315700Y7010400D03*
G01*
X12077700Y7010400D03*
G01*
X12331700Y7010400D03*
D39*
G01*
X9601225Y12280392D03*
G01*
X9347200Y12281382D03*
D40*
G01*
X9855212Y12280404D03*
D41*
G01*
X4165600Y7658100D03*
G01*
X4165600Y6896100D03*
G01*
X4927600Y6896100D03*
G01*
X4927600Y7658100D03*
M02*
